<?xml version="1.0" encoding="UTF-8"?>
<svg version="1.1" xmlns="http://www.w3.org/2000/svg" width="64" height="64">
<path d="M0 0 C1.19463867 -0.00630432 2.38927734 -0.01260864 3.62011719 -0.019104 C4.91594727 -0.01505554 6.21177734 -0.01100708 7.546875 -0.00683594 C8.88444082 -0.00818272 10.22200617 -0.01012336 11.55957031 -0.01263428 C14.36397966 -0.01558494 17.16826169 -0.01128987 19.97265625 -0.00195312 C23.57092422 0.00944153 27.16889386 0.00288172 30.76715088 -0.00909805 C33.52948258 -0.0163183 36.29174333 -0.014028 39.05407715 -0.00884247 C41.02726433 -0.00685568 43.00045426 -0.01293935 44.97363281 -0.019104 C46.16827148 -0.01279968 47.36291016 -0.00649536 48.59375 0 C50.17687988 0.00238678 50.17687988 0.00238678 51.79199219 0.00482178 C54.296875 0.25878906 54.296875 0.25878906 56.296875 2.25878906 C56.55566406 4.93261719 56.55566406 4.93261719 56.5625 8.29003906 C56.56636719 10.09408203 56.56636719 10.09408203 56.5703125 11.93457031 C56.56257813 13.1965625 56.55484375 14.45855469 56.546875 15.75878906 C56.55847656 17.65177734 56.55847656 17.65177734 56.5703125 19.58300781 C56.56773438 20.78570313 56.56515625 21.98839844 56.5625 23.22753906 C56.56024414 24.33548828 56.55798828 25.4434375 56.55566406 26.58496094 C56.296875 29.25878906 56.296875 29.25878906 54.296875 31.25878906 C51.79199219 31.51275635 51.79199219 31.51275635 48.59375 31.51757812 C47.39911133 31.52388245 46.20447266 31.53018677 44.97363281 31.53668213 C43.67780273 31.53263367 42.38197266 31.52858521 41.046875 31.52441406 C39.70930918 31.52576085 38.37174383 31.52770149 37.03417969 31.5302124 C34.22977034 31.53316306 31.42548831 31.528868 28.62109375 31.51953125 C25.02282578 31.5081366 21.42485614 31.5146964 17.82659912 31.52667618 C15.06426742 31.53389642 12.30200667 31.53160613 9.53967285 31.52642059 C7.56648567 31.52443381 5.59329574 31.53051748 3.62011719 31.53668213 C2.42547852 31.53037781 1.23083984 31.52407349 0 31.51757812 C-1.05541992 31.51598694 -2.11083984 31.51439575 -3.19824219 31.51275635 C-5.703125 31.25878906 -5.703125 31.25878906 -7.703125 29.25878906 C-7.96191406 26.58496094 -7.96191406 26.58496094 -7.96875 23.22753906 C-7.97132813 22.02484375 -7.97390625 20.82214844 -7.9765625 19.58300781 C-7.96882812 18.32101563 -7.96109375 17.05902344 -7.953125 15.75878906 C-7.96085938 14.49679687 -7.96859375 13.23480469 -7.9765625 11.93457031 C-7.97398437 10.731875 -7.97140625 9.52917969 -7.96875 8.29003906 C-7.96649414 7.18208984 -7.96423828 6.07414063 -7.96191406 4.93261719 C-7.45303986 -0.32510951 -4.54143332 0.00684682 0 0 Z M3.296875 8.25878906 C3.296875 13.53878906 3.296875 18.81878906 3.296875 24.25878906 C3.956875 24.25878906 4.616875 24.25878906 5.296875 24.25878906 C5.296875 21.94878906 5.296875 19.63878906 5.296875 17.25878906 C7.606875 17.25878906 9.916875 17.25878906 12.296875 17.25878906 C12.296875 16.59878906 12.296875 15.93878906 12.296875 15.25878906 C9.986875 15.25878906 7.676875 15.25878906 5.296875 15.25878906 C5.296875 13.60878906 5.296875 11.95878906 5.296875 10.25878906 C7.936875 10.25878906 10.576875 10.25878906 13.296875 10.25878906 C13.296875 9.59878906 13.296875 8.93878906 13.296875 8.25878906 C9.996875 8.25878906 6.696875 8.25878906 3.296875 8.25878906 Z M16.296875 8.25878906 C16.296875 8.91878906 16.296875 9.57878906 16.296875 10.25878906 C17.946875 10.25878906 19.596875 10.25878906 21.296875 10.25878906 C21.296875 14.87878906 21.296875 19.49878906 21.296875 24.25878906 C22.286875 24.25878906 23.276875 24.25878906 24.296875 24.25878906 C24.296875 19.63878906 24.296875 15.01878906 24.296875 10.25878906 C25.946875 10.25878906 27.596875 10.25878906 29.296875 10.25878906 C29.296875 9.59878906 29.296875 8.93878906 29.296875 8.25878906 C25.006875 8.25878906 20.716875 8.25878906 16.296875 8.25878906 Z M33.296875 8.25878906 C33.296875 13.53878906 33.296875 18.81878906 33.296875 24.25878906 C34.286875 24.25878906 35.276875 24.25878906 36.296875 24.25878906 C36.296875 22.27878906 36.296875 20.29878906 36.296875 18.25878906 C37.410625 18.13503906 38.524375 18.01128906 39.671875 17.88378906 C43.32791177 17.61220776 43.32791177 17.61220776 45.296875 15.25878906 C45.71354167 12.75878906 45.71354167 12.75878906 45.296875 10.25878906 C41.0944296 7.4571588 38.29582565 8.11389194 33.296875 8.25878906 Z " fill="#0840F9" transform="translate(7.703125,-0.2587890625)"/>
<path d="M0 0 C3.19956335 1.4456163 4.99827625 3.26361229 7.34765625 5.8671875 C8.14945313 6.72828125 8.95125 7.589375 9.77734375 8.4765625 C11.47265625 11.1171875 11.47265625 11.1171875 11.23046875 13.9453125 C10.98039062 14.66203125 10.7303125 15.37875 10.47265625 16.1171875 C9.15265625 16.4471875 7.83265625 16.7771875 6.47265625 17.1171875 C5.48265625 15.7971875 4.49265625 14.4771875 3.47265625 13.1171875 C3.14265625 18.0671875 2.81265625 23.0171875 2.47265625 28.1171875 C0.82265625 28.4471875 -0.82734375 28.7771875 -2.52734375 29.1171875 C-4.52350929 27.12102196 -3.93717802 23.30016787 -4.08984375 20.5546875 C-4.13302734 19.84376953 -4.17621094 19.13285156 -4.22070312 18.40039062 C-4.32706152 16.63956838 -4.42773221 14.8784043 -4.52734375 13.1171875 C-5.1409375 13.78234375 -5.75453125 14.4475 -6.38671875 15.1328125 C-7.44632813 16.11507812 -7.44632813 16.11507812 -8.52734375 17.1171875 C-10.77734375 16.8671875 -10.77734375 16.8671875 -12.52734375 16.1171875 C-13.02402902 12.50131875 -12.62143644 11.25421568 -10.515625 8.1875 C-9.63261719 7.21554688 -8.74960937 6.24359375 -7.83984375 5.2421875 C-6.96972656 4.25476562 -6.09960938 3.26734375 -5.203125 2.25 C-2.52734375 0.1171875 -2.52734375 0.1171875 0 0 Z " fill="#073FFA" transform="translate(32.52734375,31.8828125)"/>
<path d="M0 0 C1.65 0 3.3 0 5 0 C5.38218767 1.65614657 5.71395102 3.32457024 6 5 C5 6 5 6 2.4375 6.0625 C1.2309375 6.0315625 1.2309375 6.0315625 0 6 C0 4.02 0 2.04 0 0 Z " fill="#0740F9" transform="translate(44,10)"/>
</svg>
