<?xml version="1.0" encoding="UTF-8"?>
<svg version="1.1" xmlns="http://www.w3.org/2000/svg" width="64" height="64">
    <path d="M0 0 C0.84046875 0.35191406 1.6809375 0.70382813 2.546875 1.06640625 C9.61286875 4.10275181 9.61286875 4.10275181 12.125 7.125 C12.41796875 9.38671875 12.41796875 9.38671875 12.3125 11.8125 C12.27189453 13.02486328 12.27189453 13.02486328 12.23046875 14.26171875 C12.19566406 14.87660156 12.16085938 15.49148437 12.125 16.125 C5.54550071 19.25860768 -1.06926289 22.29684054 -7.8125 25.0625 C-8.83214844 25.48402344 -9.85179687 25.90554687 -10.90234375 26.33984375 C-16.10276639 27.71341136 -20.57775655 26.01981301 -25.45703125 24.09375 C-26.47087891 23.69542969 -27.48472656 23.29710938 -28.52929688 22.88671875 C-30.09260742 22.26216797 -30.09260742 22.26216797 -31.6875 21.625 C-32.74904297 21.20863281 -33.81058594 20.79226562 -34.90429688 20.36328125 C-42.73157242 17.26842758 -42.73157242 17.26842758 -43.875 16.125 C-44.1484375 14.19921875 -44.1484375 14.19921875 -44.25 11.8125 C-44.29898438 11.03261719 -44.34796875 10.25273437 -44.3984375 9.44921875 C-43.5960745 5.88648753 -41.93104849 5.0824184 -38.875 3.125 C-35.6872959 1.5202436 -32.43222829 0.1505576 -29.125 -1.1875 C-28.2690625 -1.55939453 -27.413125 -1.93128906 -26.53125 -2.31445312 C-16.58124484 -6.36229613 -9.53478918 -4.1959088 0 0 Z M-16.875 0.125 C-17.205 0.785 -17.535 1.445 -17.875 2.125 C-14.86468256 3.05923645 -14.00849732 3.16949911 -10.875 2.125 C-10.875 1.465 -10.875 0.805 -10.875 0.125 C-12.855 0.125 -14.835 0.125 -16.875 0.125 Z M-28.875 8.125 C-28.545 8.785 -28.215 9.445 -27.875 10.125 C-26.555 10.125 -25.235 10.125 -23.875 10.125 C-23.875 9.465 -23.875 8.805 -23.875 8.125 C-25.525 8.125 -27.175 8.125 -28.875 8.125 Z M-5.875 8.125 C-5.875 8.785 -5.875 9.445 -5.875 10.125 C-2.41 9.63 -2.41 9.63 1.125 9.125 C1.125 8.795 1.125 8.465 1.125 8.125 C-1.185 8.125 -3.495 8.125 -5.875 8.125 Z M-18.875 12.125 C-18.875 12.785 -18.875 13.445 -18.875 14.125 C-13.82490405 15.06286082 -13.82490405 15.06286082 -8.875 14.125 C-8.875 13.465 -8.875 12.805 -8.875 12.125 C-13.92509595 11.18713918 -13.92509595 11.18713918 -18.875 12.125 Z " fill="#E83119" transform="translate(49.875,8.875)"/>
    <path d="M0 0 C3.4794963 1.36154203 4.70766749 2.59073448 6.875 5.625 C8.34559919 10.03679756 8.36942062 13.54733297 7 18 C4.41802914 21.17781029 2.21521055 23.68987052 -1.953125 24.2734375 C-6.15148712 24.45907936 -9.07490427 24.45668199 -12.4375 21.75 C-16.12694149 17.79059938 -17.0261473 16.62113288 -16.9375 11.125 C-16.23370069 6.53313866 -14.24553757 4.24553757 -11 1 C-7.54534728 -0.72732636 -3.78423122 -0.35415682 0 0 Z M-4 7 C-4 8.32 -4 9.64 -4 11 C-6.97 11 -9.94 11 -13 11 C-13 11.66 -13 12.32 -13 13 C-10.03 13 -7.06 13 -4 13 C-3.67 14.32 -3.34 15.64 -3 17 C-1.35 15.68 0.3 14.36 2 13 C0.95125002 10.37812506 0.35068687 9.20628639 -2.125 7.75 C-2.74375 7.5025 -3.3625 7.255 -4 7 Z " fill="#F5B151" transform="translate(18,34)"/>
    <path d="M0 0 C0.4870273 7.30540953 0.4870273 7.30540953 -1.40234375 10 C-5.20804019 12.93010011 -9.36206461 14.50726243 -13.8125 16.25 C-14.68970703 16.61351563 -15.56691406 16.97703125 -16.47070312 17.3515625 C-22.16635969 19.61789705 -27.10497258 21.1540822 -33.21484375 19.34375 C-34.80989583 18.5625 -36.40494792 17.78125 -38 17 C-37.01 14.36 -36.02 11.72 -35 9 C-32.89625 9.13921875 -32.89625 9.13921875 -30.75 9.28125 C-24.2030482 9.28125 -18.94692146 7.04213716 -13 4.5 C-10.95936459 3.65375892 -8.917747 2.80988112 -6.875 1.96875 C-5.98554687 1.59169922 -5.09609375 1.21464844 -4.1796875 0.82617188 C-2 0 -2 0 0 0 Z " fill="#E83018" transform="translate(62,40)"/>
    <path d="M0 0 C0 3.3 0 6.6 0 10 C-4.17708621 11.71412453 -8.36802729 13.39142207 -12.5625 15.0625 C-13.74392578 15.54783203 -14.92535156 16.03316406 -16.14257812 16.53320312 C-17.86831055 17.21479492 -17.86831055 17.21479492 -19.62890625 17.91015625 C-21.2078064 18.54642944 -21.2078064 18.54642944 -22.81860352 19.19555664 C-26.59413574 20.15023231 -29.22616694 19.88371138 -33 19 C-35.34914492 16.65085508 -35.73140357 15.04320554 -36.625 11.875 C-36.88539062 10.96492188 -37.14578125 10.05484375 -37.4140625 9.1171875 C-37.60742188 8.41851562 -37.80078125 7.71984375 -38 7 C-35.21679688 7.83007812 -35.21679688 7.83007812 -32.43359375 8.66015625 C-25.22621644 9.66664393 -18.73014137 6.55184738 -12.1875 3.9375 C-10.30712379 3.19374065 -8.42566478 2.45271115 -6.54296875 1.71484375 C-5.71821045 1.38605225 -4.89345215 1.05726074 -4.04370117 0.71850586 C-2 0 -2 0 0 0 Z " fill="#E83018" transform="translate(62,28)"/>
</svg>
