<?xml version="1.0" encoding="UTF-8"?>
<svg version="1.1" xmlns="http://www.w3.org/2000/svg" width="64" height="64">
    <path d="M0 0 C7.59497244 5.60266808 13.13239646 11.50917835 15 21 C15.91632171 32.92720396 14.52402641 41.16432277 6.75 50.375 C1.11363334 56.28993503 -4.88774365 59.60724479 -13.1015625 60.23828125 C-25.48072676 60.4990397 -32.85509323 57.96284679 -41.86328125 49.37890625 C-48.47428964 42.01856967 -49.38431587 34.15617768 -49.265625 24.6015625 C-48.52573143 14.56947615 -43.3592337 7.61001779 -36 1 C-25.55130237 -5.95967733 -10.76475029 -6.5823801 0 0 Z M-26 19 C-27.05008653 20.97416268 -28.04987876 22.97582866 -29 25 C-29.886875 25.66 -30.77375 26.32 -31.6875 27 C-34.29962606 28.82895514 -34.29962606 28.82895514 -34.5 32 C-33.95698679 35.25807925 -33.31873852 36.68126148 -31 39 C-26.43719699 40.52093434 -21.90455432 40.22539483 -17.125 40.25 C-16.13113281 40.270625 -15.13726562 40.29125 -14.11328125 40.3125 C-7.05664285 40.39337599 -7.05664285 40.39337599 -1 37 C0.33104618 35.87896744 0.33104618 35.87896744 0.3125 33 C0.21343069 28.22485932 -1.16811499 23.86469013 -4 20 C-7.33635192 18.9872962 -7.33635192 18.9872962 -11 19 C-12.9375 18.30078125 -12.9375 18.30078125 -14.8125 17.4375 C-19.65166523 15.25513137 -21.51203037 16.25226349 -26 19 Z " fill="#6D92FB" transform="translate(49,4)"/>
    <path d="M0 0 C1.32 0 2.64 0 4 0 C4 2.64 4 5.28 4 8 C5.32 8.33 6.64 8.66 8 9 C6.92598892 11.91517292 6.22189824 13.77810176 4 16 C1.5625 15.9375 1.5625 15.9375 -1 15 C-2.875 12.5625 -2.875 12.5625 -4 10 C-3.67 9.34 -3.34 8.68 -3 8 C-2.34 8 -1.68 8 -1 8 C-0.67 5.36 -0.34 2.72 0 0 Z " fill="#6C92FB" transform="translate(30,25)"/>
</svg>
