<?xml version="1.0" encoding="UTF-8"?>
<svg version="1.1" xmlns="http://www.w3.org/2000/svg" width="64" height="64">
<path d="M0 0 C4.91369857 2.12601527 7.92462656 5.70411281 11 10 C12.125 13.1875 12.125 13.1875 12 16 C9.01709801 21.8240207 4.27005767 26.13844414 -0.29614258 30.72167969 C-1.8100656 32.24754639 -3.30431187 33.79108843 -4.79882812 35.3359375 C-5.76707463 36.31364472 -6.73643931 37.29024611 -7.70703125 38.265625 C-8.5781958 39.15024414 -9.44936035 40.03486328 -10.34692383 40.94628906 C-13.36162728 43.27993086 -15.21868135 43.83753035 -19 44 C-21.87872577 42.6260627 -23.74989437 41.25010563 -26 39 C-26.61344088 35.04671431 -27.01051413 32.47646602 -24.70385742 29.10620117 C-24.13513916 28.48720947 -23.5664209 27.86821777 -22.98046875 27.23046875 C-22.3455249 26.53791992 -21.71058105 25.84537109 -21.05639648 25.13183594 C-17.0180904 20.94538352 -12.83420879 16.90951142 -8.609375 12.91210938 C-4.43559575 8.84504607 -1.87349874 5.54123281 0 0 Z " fill="#75C6A7" transform="translate(45,19)"/>
<path d="M0 0 C2.73828125 2.07421875 2.73828125 2.07421875 5.3125 4.6875 C6.17488281 5.53699219 7.03726563 6.38648438 7.92578125 7.26171875 C10.24382884 10.32189081 10.81610395 12.19597894 11 16 C9.20095741 20.09781924 6.43288013 23.15322135 3 26 C-0.71834515 25.94366144 -2.70597079 23.63352162 -5.21289062 21.09960938 C-5.69951172 20.59236328 -6.18613281 20.08511719 -6.6875 19.5625 C-7.18572266 19.05912109 -7.68394531 18.55574219 -8.19726562 18.03710938 C-11.631306 14.52851724 -12.91176723 13.09408635 -13.3125 8.125 C-13.27809912 4.96585234 -13.14957689 4.20115512 -11.1875 1.5625 C-7.23250877 -1.26249374 -4.58772947 -1.24809038 0 0 Z " fill="#4FA7C6" transform="translate(32,4)"/>
<path d="M0 0 C3.99420536 0.99855134 4.76091681 1.3931645 7.453125 4.16015625 C8.071875 4.78857422 8.690625 5.41699219 9.328125 6.06445312 C9.96234375 6.72380859 10.5965625 7.38316406 11.25 8.0625 C11.8996875 8.72572266 12.549375 9.38894531 13.21875 10.07226562 C14.8194676 11.70829317 16.41276193 13.35090912 18 15 C15.97885812 19.44953329 12.99028627 22.3409448 9.5625 25.75 C8.97662109 26.35199219 8.39074219 26.95398438 7.78710938 27.57421875 C7.21927734 28.14269531 6.65144531 28.71117188 6.06640625 29.296875 C5.55021729 29.81604492 5.03402832 30.33521484 4.50219727 30.87011719 C3 32 3 32 0 32 C0 21.44 0 10.88 0 0 Z " fill="#5567A6" transform="translate(13,17)"/>
</svg>
