<?xml version="1.0" encoding="UTF-8"?>
<svg version="1.1" xmlns="http://www.w3.org/2000/svg" width="64" height="64">
<path d="M0 0 C1.19463867 -0.00630432 2.38927734 -0.01260864 3.62011719 -0.019104 C4.91594727 -0.01505554 6.21177734 -0.01100708 7.546875 -0.00683594 C8.88444082 -0.00818272 10.22200617 -0.01012336 11.55957031 -0.01263428 C14.36397966 -0.01558494 17.16826169 -0.01128987 19.97265625 -0.00195312 C23.57092422 0.00944153 27.16889386 0.00288172 30.76715088 -0.00909805 C33.52948258 -0.0163183 36.29174333 -0.014028 39.05407715 -0.00884247 C41.02726433 -0.00685568 43.00045426 -0.01293935 44.97363281 -0.019104 C46.16827148 -0.01279968 47.36291016 -0.00649536 48.59375 0 C50.17687988 0.00238678 50.17687988 0.00238678 51.79199219 0.00482178 C54.296875 0.25878906 54.296875 0.25878906 56.296875 2.25878906 C56.55566406 4.93261719 56.55566406 4.93261719 56.5625 8.29003906 C56.56636719 10.09408203 56.56636719 10.09408203 56.5703125 11.93457031 C56.56257813 13.1965625 56.55484375 14.45855469 56.546875 15.75878906 C56.55847656 17.65177734 56.55847656 17.65177734 56.5703125 19.58300781 C56.56773438 20.78570313 56.56515625 21.98839844 56.5625 23.22753906 C56.56024414 24.33548828 56.55798828 25.4434375 56.55566406 26.58496094 C56.296875 29.25878906 56.296875 29.25878906 54.296875 31.25878906 C51.79199219 31.51275635 51.79199219 31.51275635 48.59375 31.51757812 C47.39911133 31.52388245 46.20447266 31.53018677 44.97363281 31.53668213 C43.67780273 31.53263367 42.38197266 31.52858521 41.046875 31.52441406 C39.70930918 31.52576085 38.37174383 31.52770149 37.03417969 31.5302124 C34.22977034 31.53316306 31.42548831 31.528868 28.62109375 31.51953125 C25.02282578 31.5081366 21.42485614 31.5146964 17.82659912 31.52667618 C15.06426742 31.53389642 12.30200667 31.53160613 9.53967285 31.52642059 C7.56648567 31.52443381 5.59329574 31.53051748 3.62011719 31.53668213 C2.42547852 31.53037781 1.23083984 31.52407349 0 31.51757812 C-1.05541992 31.51598694 -2.11083984 31.51439575 -3.19824219 31.51275635 C-5.703125 31.25878906 -5.703125 31.25878906 -7.703125 29.25878906 C-7.96191406 26.58496094 -7.96191406 26.58496094 -7.96875 23.22753906 C-7.97132813 22.02484375 -7.97390625 20.82214844 -7.9765625 19.58300781 C-7.96882812 18.32101563 -7.96109375 17.05902344 -7.953125 15.75878906 C-7.96085938 14.49679687 -7.96859375 13.23480469 -7.9765625 11.93457031 C-7.97398437 10.731875 -7.97140625 9.52917969 -7.96875 8.29003906 C-7.96649414 7.18208984 -7.96423828 6.07414063 -7.96191406 4.93261719 C-7.45303986 -0.32510951 -4.54143332 0.00684682 0 0 Z M3.296875 8.25878906 C3.296875 13.53878906 3.296875 18.81878906 3.296875 24.25878906 C3.956875 24.25878906 4.616875 24.25878906 5.296875 24.25878906 C5.296875 21.94878906 5.296875 19.63878906 5.296875 17.25878906 C7.606875 17.25878906 9.916875 17.25878906 12.296875 17.25878906 C12.296875 16.59878906 12.296875 15.93878906 12.296875 15.25878906 C9.986875 15.25878906 7.676875 15.25878906 5.296875 15.25878906 C5.296875 13.60878906 5.296875 11.95878906 5.296875 10.25878906 C7.936875 10.25878906 10.576875 10.25878906 13.296875 10.25878906 C13.296875 9.59878906 13.296875 8.93878906 13.296875 8.25878906 C9.996875 8.25878906 6.696875 8.25878906 3.296875 8.25878906 Z M16.296875 8.25878906 C16.296875 8.91878906 16.296875 9.57878906 16.296875 10.25878906 C17.946875 10.25878906 19.596875 10.25878906 21.296875 10.25878906 C21.296875 14.87878906 21.296875 19.49878906 21.296875 24.25878906 C22.286875 24.25878906 23.276875 24.25878906 24.296875 24.25878906 C24.296875 19.63878906 24.296875 15.01878906 24.296875 10.25878906 C25.946875 10.25878906 27.596875 10.25878906 29.296875 10.25878906 C29.296875 9.59878906 29.296875 8.93878906 29.296875 8.25878906 C25.006875 8.25878906 20.716875 8.25878906 16.296875 8.25878906 Z M33.296875 8.25878906 C33.296875 13.53878906 33.296875 18.81878906 33.296875 24.25878906 C34.286875 24.25878906 35.276875 24.25878906 36.296875 24.25878906 C36.296875 22.27878906 36.296875 20.29878906 36.296875 18.25878906 C37.410625 18.13503906 38.524375 18.01128906 39.671875 17.88378906 C43.32791177 17.61220776 43.32791177 17.61220776 45.296875 15.25878906 C45.71354167 12.75878906 45.71354167 12.75878906 45.296875 10.25878906 C41.0944296 7.4571588 38.29582565 8.11389194 33.296875 8.25878906 Z " fill="#0840F9" transform="translate(7.703125,-0.2587890625)"/>
<path d="M0 0 C2.5 0.125 2.5 0.125 3.5 1.125 C3.73527773 3.47487262 3.91386417 5.83056039 4.0625 8.1875 C4.14628906 9.47785156 4.23007812 10.76820312 4.31640625 12.09765625 C4.37699219 13.09667969 4.43757813 14.09570312 4.5 15.125 C4.93957031 14.62355469 5.37914063 14.12210938 5.83203125 13.60546875 C6.38246094 13.11691406 6.93289062 12.62835938 7.5 12.125 C10.1875 12.4375 10.1875 12.4375 12.5 13.125 C12.86961857 16.88738603 12.78987094 18.67661576 10.70703125 21.8984375 C9.91683594 22.75695312 9.12664063 23.61546875 8.3125 24.5 C7.53519531 25.37398437 6.75789063 26.24796875 5.95703125 27.1484375 C3.5 29.125 3.5 29.125 1.03125 29.73828125 C-2.71011215 28.83180925 -4.27663568 26.78142487 -6.8125 23.9375 C-8.13701172 22.49310547 -8.13701172 22.49310547 -9.48828125 21.01953125 C-11.60632455 17.97201651 -11.99467633 16.73283938 -11.5 13.125 C-9.85 12.795 -8.2 12.465 -6.5 12.125 C-6.5 12.785 -6.5 13.445 -6.5 14.125 C-5.51 14.125 -4.52 14.125 -3.5 14.125 C-3.51160156 13.19816406 -3.52320313 12.27132812 -3.53515625 11.31640625 C-3.54417969 10.11886719 -3.55320312 8.92132813 -3.5625 7.6875 C-3.57410156 6.49253906 -3.58570313 5.29757813 -3.59765625 4.06640625 C-3.46840705 0.17342035 -3.46840705 0.17342035 0 0 Z " fill="#0740FA" transform="translate(31.5,31.875)"/>
<path d="M0 0 C1.65 0 3.3 0 5 0 C5.38218767 1.65614657 5.71395102 3.32457024 6 5 C5 6 5 6 2.4375 6.0625 C1.2309375 6.0315625 1.2309375 6.0315625 0 6 C0 4.02 0 2.04 0 0 Z " fill="#0740F9" transform="translate(44,10)"/>
</svg>
