<?xml version="1.0" encoding="UTF-8"?>
<svg version="1.1" xmlns="http://www.w3.org/2000/svg" width="64" height="64">
<path d="M0 0 C2.5 0.5625 2.5 0.5625 4.875 2.5625 C7.13807089 6.74047703 6.33317704 8.94215458 5.5 13.5625 C6.89316877 16.34883754 8.65980516 16.49742694 11.5 17.5625 C12.5 18.5625 12.5 18.5625 12.75 22 C12.6675 23.175625 12.585 24.35125 12.5 25.5625 C9.5 27.5625 9.5 27.5625 5.875 27.3125 C4.76125 27.065 3.6475 26.8175 2.5 26.5625 C1.17770811 23.91791621 1.40322806 21.88488699 1.4375 18.9375 C1.44652344 17.93460938 1.45554687 16.93171875 1.46484375 15.8984375 C1.47644531 15.12757812 1.48804687 14.35671875 1.5 13.5625 C0.51 13.5625 -0.48 13.5625 -1.5 13.5625 C-1.78875 14.42875 -2.0775 15.295 -2.375 16.1875 C-3.09602599 18.35057796 -3.86318599 20.49913755 -4.6875 22.625 C-5.74950945 25.49806956 -5.74950945 25.49806956 -4.8125 28.125 C-4.5 30.5625 -4.5 30.5625 -6.625 33.4375 C-9.5 35.5625 -9.5 35.5625 -12.125 35.625 C-15.0334931 34.32383203 -16.04357884 33.39868858 -17.5 30.5625 C-17.5 28.5625 -17.5 26.5625 -17.5 24.5625 C-19.44613374 20.87508871 -21.63781004 19.88377551 -25.5 18.5625 C-26.5 17.5625 -26.5 17.5625 -26.6875 14.625 C-26.5 11.5625 -26.5 11.5625 -24.5 9.5625 C-21.5 9.3125 -21.5 9.3125 -18.5 9.5625 C-15.94489601 12.11760399 -16.13303756 14.10712436 -15.78515625 17.5859375 C-15.45493598 19.87486153 -14.72350754 21.60488794 -13.5 23.5625 C-11.53243548 23.53127057 -11.53243548 23.53127057 -9.5 22.5625 C-8.2913437 19.77148563 -8.2913437 19.77148563 -7.5 16.5625 C-7.108125 15.758125 -6.71625 14.95375 -6.3125 14.125 C-5.24038121 11.4291732 -5.24038121 11.4291732 -6.125 8 C-6.5 4.5625 -6.5 4.5625 -4.875 2.125 C-2.5 0.5625 -2.5 0.5625 0 0 Z M-1.5 4.5625 C-1.5 5.8825 -1.5 7.2025 -1.5 8.5625 C-0.51 8.5625 0.48 8.5625 1.5 8.5625 C1.17 7.2425 0.84 5.9225 0.5 4.5625 C-0.16 4.5625 -0.82 4.5625 -1.5 4.5625 Z M-22.5 12.5625 C-22.5 13.8825 -22.5 15.2025 -22.5 16.5625 C-21.84 16.5625 -21.18 16.5625 -20.5 16.5625 C-20.5 15.2425 -20.5 13.9225 -20.5 12.5625 C-21.16 12.5625 -21.82 12.5625 -22.5 12.5625 Z M5.5 20.5625 C5.5 21.5525 5.5 22.5425 5.5 23.5625 C6.49 23.5625 7.48 23.5625 8.5 23.5625 C8.5 22.5725 8.5 21.5825 8.5 20.5625 C7.51 20.5625 6.52 20.5625 5.5 20.5625 Z M-12.5 27.5625 C-12.5 28.5525 -12.5 29.5425 -12.5 30.5625 C-11.18 30.5625 -9.86 30.5625 -8.5 30.5625 C-8.83 29.5725 -9.16 28.5825 -9.5 27.5625 C-10.49 27.5625 -11.48 27.5625 -12.5 27.5625 Z " fill="#002FFF" transform="translate(26.5,1.4375)"/>
<path d="M0 0 C0.97259766 -0.00257812 1.94519531 -0.00515625 2.94726562 -0.0078125 C3.96626953 -0.00007813 4.98527344 0.00765625 6.03515625 0.015625 C7.05029297 0.00789063 8.06542969 0.00015625 9.11132812 -0.0078125 C10.08521484 -0.00523438 11.05910156 -0.00265625 12.0625 0 C12.95573975 0.00225586 13.84897949 0.00451172 14.76928711 0.00683594 C17.09765625 0.265625 17.09765625 0.265625 20.09765625 2.265625 C20.5 4.6484375 20.5 4.6484375 20.09765625 7.265625 C18.6015625 9.1953125 18.6015625 9.1953125 16.66015625 11.140625 C11.62432739 17.12067177 12.02871384 23.790298 12.09765625 31.265625 C8.92593607 32.01000831 7.10921622 32.26784807 3.84765625 31.640625 C1.09765625 29.265625 1.09765625 29.265625 0.7421875 26.484375 C0.68615839 24.2005218 0.63017066 21.91666759 0.57421875 19.6328125 C-0.08819075 14.95250932 -2.18134295 12.58786325 -5.40625 9.265625 C-7.29648379 6.73873283 -7.34420414 5.35356886 -6.90234375 2.265625 C-4.3779468 -0.25877195 -3.49177556 0.00882956 0 0 Z M-3.90234375 3.265625 C-2.88992445 7.31530218 -2.70682158 7.66156696 0.09765625 10.203125 C4.53578433 15.04471927 4.07881774 21.00182106 4.09765625 27.265625 C6.57265625 28.255625 6.57265625 28.255625 9.09765625 29.265625 C9.08863281 28.28722656 9.07960938 27.30882813 9.0703125 26.30078125 C9.27231729 17.36865628 10.43198316 11.68764424 17.09765625 5.265625 C16.76765625 4.605625 16.43765625 3.945625 16.09765625 3.265625 C9.49765625 3.265625 2.89765625 3.265625 -3.90234375 3.265625 Z " fill="#002EFF" transform="translate(41.90234375,31.734375)"/>
<path d="M0 0 C3.08325358 -0.0582253 6.16636505 -0.09367134 9.25 -0.125 C10.55904297 -0.15013672 10.55904297 -0.15013672 11.89453125 -0.17578125 C12.73886719 -0.18222656 13.58320312 -0.18867187 14.453125 -0.1953125 C15.22817383 -0.20578613 16.00322266 -0.21625977 16.80175781 -0.22705078 C19.35957925 0.03714002 20.86500503 0.56439993 23 2 C24.87006156 4.80177271 25.2428715 6.99899519 25.1953125 10.328125 C25.18886719 11.12734375 25.18242188 11.9265625 25.17578125 12.75 C25.15902344 13.575 25.14226562 14.4 25.125 15.25 C25.11597656 16.09046875 25.10695313 16.9309375 25.09765625 17.796875 C25.07415817 19.86470604 25.03828908 21.93238995 25 24 C23.0625 24.5625 23.0625 24.5625 21 25 C19.48578999 23.48578999 19.78690144 22.07527232 19.68359375 19.96484375 C19.64169922 19.15595703 19.59980469 18.34707031 19.55664062 17.51367188 C19.51732422 16.66353516 19.47800781 15.81339844 19.4375 14.9375 C19.39431641 14.08349609 19.35113281 13.22949219 19.30664062 12.34960938 C19.20023298 10.23327963 19.09958269 8.11666187 19 6 C15.70039859 4.3501993 12.00872116 4.61741639 8.375 4.4375 C7.57320312 4.39431641 6.77140625 4.35113281 5.9453125 4.30664062 C3.9637489 4.20048543 1.98189729 4.09973145 0 4 C0 2.68 0 1.36 0 0 Z " fill="#002FFF" transform="translate(39,0)"/>
<path d="M0 0 C1.98 0.495 1.98 0.495 4 1 C4.33 6.94 4.66 12.88 5 19 C8.29960141 20.6498007 11.99127884 20.38258361 15.625 20.5625 C16.42679688 20.60568359 17.22859375 20.64886719 18.0546875 20.69335938 C20.0362511 20.79951457 22.01810271 20.90026855 24 21 C23.67 22.32 23.34 23.64 23 25 C20.08308475 25.05401695 17.16717276 25.09368066 14.25 25.125 C13.425 25.14175781 12.6 25.15851563 11.75 25.17578125 C10.95078125 25.18222656 10.1515625 25.18867187 9.328125 25.1953125 C8.5949707 25.20578613 7.86181641 25.21625977 7.10644531 25.22705078 C4.59878839 24.95675396 3.0996248 24.40140834 1 23 C-0.85231035 20.21659352 -1.2491592 18.01304229 -1.23046875 14.70703125 C-1.22853516 13.91232422 -1.22660156 13.11761719 -1.22460938 12.29882812 C-1.21236328 11.47833984 -1.20011719 10.65785156 -1.1875 9.8125 C-1.18685547 8.98041016 -1.18621094 8.14832031 -1.18554688 7.29101562 C-1.14043257 1.14043257 -1.14043257 1.14043257 0 0 Z " fill="#002EFF" transform="translate(1,39)"/>
</svg>
