<?xml version="1.0" encoding="UTF-8"?>
<svg version="1.1" xmlns="http://www.w3.org/2000/svg" width="64" height="64">
    <path d="M0 0 C3.0625 0.125 3.0625 0.125 5.0625 1.125 C5.0625 6.735 5.0625 12.345 5.0625 18.125 C7.3725 18.125 9.6825 18.125 12.0625 18.125 C12.04509766 16.30162109 12.04509766 16.30162109 12.02734375 14.44140625 C12.01796722 12.85677236 12.00886687 11.27213682 12 9.6875 C11.99162109 8.88505859 11.98324219 8.08261719 11.97460938 7.25585938 C11.9659857 5.21204779 12.0102185 3.16816098 12.0625 1.125 C13.0625 0.125 13.0625 0.125 16 0 C19.0625 0.125 19.0625 0.125 21.0625 1.125 C21.37491455 3.83946979 21.57586592 6.46409361 21.6875 9.1875 C21.72617187 9.94611328 21.76484375 10.70472656 21.8046875 11.48632812 C21.89923562 13.36547195 21.98196756 15.24520336 22.0625 17.125 C23.12210938 17.17398437 24.18171875 17.22296875 25.2734375 17.2734375 C26.66148497 17.34846709 28.04950451 17.42401485 29.4375 17.5 C30.13617188 17.5309375 30.83484375 17.561875 31.5546875 17.59375 C36.8359375 17.8984375 36.8359375 17.8984375 39.0625 20.125 C39.32128906 22.5234375 39.32128906 22.5234375 39.328125 25.5 C39.33199219 27.10101563 39.33199219 27.10101563 39.3359375 28.734375 C39.32820313 29.85328125 39.32046875 30.9721875 39.3125 32.125 C39.32410156 33.80335937 39.32410156 33.80335937 39.3359375 35.515625 C39.33335938 36.58296875 39.33078125 37.6503125 39.328125 38.75 C39.32586914 39.73226562 39.32361328 40.71453125 39.32128906 41.7265625 C39.0625 44.125 39.0625 44.125 37.0625 46.125 C34.06114387 46.31276167 31.15362854 46.38050182 28.15234375 46.35546875 C27.26970352 46.35501053 26.38706329 46.35455231 25.47767639 46.3540802 C23.61067359 46.35105687 21.74367333 46.34316817 19.87670898 46.33081055 C17.00821061 46.31255226 14.14003479 46.31030084 11.27148438 46.31054688 C9.46093469 46.30563188 7.65038721 46.29980364 5.83984375 46.29296875 C4.97632797 46.29185593 4.11281219 46.2907431 3.22312927 46.28959656 C-2.82145385 46.24104615 -2.82145385 46.24104615 -3.9375 45.125 C-4.03545311 43.74890118 -4.06548088 42.36786118 -4.06689453 40.98828125 C-4.07004669 40.11067139 -4.07319885 39.23306152 -4.07644653 38.32885742 C-4.0744223 37.37470947 -4.07239807 36.42056152 -4.0703125 35.4375 C-4.07126923 34.46466064 -4.07222595 33.49182129 -4.07321167 32.48950195 C-4.07389358 30.428222 -4.07203853 28.36693992 -4.06787109 26.30566406 C-4.062523 23.13862312 -4.06781572 19.971724 -4.07421875 16.8046875 C-4.07355797 14.80729135 -4.07227681 12.80989529 -4.0703125 10.8125 C-4.07233673 9.85835205 -4.07436096 8.9042041 -4.07644653 7.92114258 C-4.07329437 7.04353271 -4.07014221 6.16592285 -4.06689453 5.26171875 C-4.06609894 4.48530029 -4.06530334 3.70888184 -4.06448364 2.90893555 C-3.84526548 -0.1707609 -3.12392278 0.13293288 0 0 Z M22.0625 29.125 C21.89583333 32.125 21.89583333 32.125 22.0625 35.125 C23.1220877 36.40822547 23.1220877 36.40822547 25.5625 36.25 C28.0029123 36.40822547 28.0029123 36.40822547 29.0625 35.125 C29.10342937 32.79202567 29.10491723 30.45794775 29.0625 28.125 C25.25628955 27.68652641 25.25628955 27.68652641 22.0625 29.125 Z " fill="#F38C1E" transform="translate(3.9375,8.875)"/>
    <path d="M0 0 C2.46800047 1.15173355 4.04783565 2.04783565 6 4 C6.5 6.3125 6.5 6.3125 6 9 C4.15028917 10.97876042 2.20706386 12.3906826 0 14 C0 12.68 0 11.36 0 10 C-4.29 10 -8.58 10 -13 10 C-13 7.69 -13 5.38 -13 3 C-8.71 3 -4.42 3 0 3 C0 2.01 0 1.02 0 0 Z " fill="#F48D1C" transform="translate(58,31)"/>
</svg>