<?xml version="1.0" encoding="UTF-8"?>
<svg version="1.1" xmlns="http://www.w3.org/2000/svg" width="64" height="64">
    <path d="M0 0 C0.84046875 0.35191406 1.6809375 0.70382813 2.546875 1.06640625 C9.61286875 4.10275181 9.61286875 4.10275181 12.125 7.125 C12.41796875 9.38671875 12.41796875 9.38671875 12.3125 11.8125 C12.27189453 13.02486328 12.27189453 13.02486328 12.23046875 14.26171875 C12.19566406 14.87660156 12.16085938 15.49148437 12.125 16.125 C5.54550071 19.25860768 -1.06926289 22.29684054 -7.8125 25.0625 C-8.83214844 25.48402344 -9.85179687 25.90554687 -10.90234375 26.33984375 C-16.10276639 27.71341136 -20.57775655 26.01981301 -25.45703125 24.09375 C-26.47087891 23.69542969 -27.48472656 23.29710938 -28.52929688 22.88671875 C-30.09260742 22.26216797 -30.09260742 22.26216797 -31.6875 21.625 C-32.74904297 21.20863281 -33.81058594 20.79226562 -34.90429688 20.36328125 C-42.73157242 17.26842758 -42.73157242 17.26842758 -43.875 16.125 C-44.1484375 14.19921875 -44.1484375 14.19921875 -44.25 11.8125 C-44.29898438 11.03261719 -44.34796875 10.25273437 -44.3984375 9.44921875 C-43.5960745 5.88648753 -41.93104849 5.0824184 -38.875 3.125 C-35.6872959 1.5202436 -32.43222829 0.1505576 -29.125 -1.1875 C-28.2690625 -1.55939453 -27.413125 -1.93128906 -26.53125 -2.31445312 C-16.58124484 -6.36229613 -9.53478918 -4.1959088 0 0 Z M-16.875 0.125 C-17.205 0.785 -17.535 1.445 -17.875 2.125 C-14.86468256 3.05923645 -14.00849732 3.16949911 -10.875 2.125 C-10.875 1.465 -10.875 0.805 -10.875 0.125 C-12.855 0.125 -14.835 0.125 -16.875 0.125 Z M-28.875 8.125 C-28.545 8.785 -28.215 9.445 -27.875 10.125 C-26.555 10.125 -25.235 10.125 -23.875 10.125 C-23.875 9.465 -23.875 8.805 -23.875 8.125 C-25.525 8.125 -27.175 8.125 -28.875 8.125 Z M-5.875 8.125 C-5.875 8.785 -5.875 9.445 -5.875 10.125 C-2.41 9.63 -2.41 9.63 1.125 9.125 C1.125 8.795 1.125 8.465 1.125 8.125 C-1.185 8.125 -3.495 8.125 -5.875 8.125 Z M-18.875 12.125 C-18.875 12.785 -18.875 13.445 -18.875 14.125 C-13.82490405 15.06286082 -13.82490405 15.06286082 -8.875 14.125 C-8.875 13.465 -8.875 12.805 -8.875 12.125 C-13.92509595 11.18713918 -13.92509595 11.18713918 -18.875 12.125 Z " fill="#E83119" transform="translate(45.875,8.875)"/>
    <path d="M0 0 C3.14731257 1.6564803 5.23306045 4.03298926 7.4375 6.8125 C8.34559252 10.3439709 8.04352097 13.55902263 7 17 C5.17978856 19.95943469 3.1595914 22.4202043 0 24 C-4.21226823 24.43032996 -7.91059104 24.42629046 -11.875 22.875 C-14.68985619 20.39130336 -15.80619986 18.58140041 -17 15 C-17.29910345 10.01201005 -16.74822606 6.92089362 -13.5625 3 C-9.16603534 -0.43138705 -5.47956277 -0.82884143 0 0 Z M-4 7 C-4 8.32 -4 9.64 -4 11 C-6.97 11 -9.94 11 -13 11 C-13 11.66 -13 12.32 -13 13 C-10.98177083 13.16276042 -8.96354167 13.32552083 -6.9453125 13.48828125 C-5 14 -5 14 -3 17 C-1.35 15.68 0.3 14.36 2 13 C0.75453595 9.26360784 -0.63404953 8.81243487 -4 7 Z " fill="#F5B151" transform="translate(55,34)"/>
    <path d="M0 0 C6.78781243 1.82073086 13.21653367 4.2002751 19.64477539 7.01806641 C25.26043445 9.38357428 29.14055354 9.46486162 35 8 C35.99 10.97 36.98 13.94 38 17 C33.5672013 19.59480899 30.07483191 20.74731919 25 20 C20.96486426 18.79726496 17.08961839 17.26349647 13.1875 15.6875 C12.13884766 15.28337891 11.09019531 14.87925781 10.00976562 14.46289062 C2.25996933 11.38995399 2.25996933 11.38995399 0 8 C-0.25760279 5.30547479 -0.08900053 2.71451625 0 0 Z " fill="#E83119" transform="translate(2,40)"/>
    <path d="M0 0 C4.75005921 1.33595415 9.40065485 2.73053022 13.98046875 4.5703125 C14.67462891 4.84601074 15.36878906 5.12170898 16.08398438 5.40576172 C17.46195347 5.95880456 18.83469282 6.52510403 20.20117188 7.10595703 C24.91304505 8.98579323 28.0806938 9.08675625 33 8 C33.969375 7.814375 34.93875 7.62875 35.9375 7.4375 C36.618125 7.293125 37.29875 7.14875 38 7 C37.43489946 8.79750065 36.84722594 10.58791623 36.25 12.375 C35.92515625 13.37273438 35.6003125 14.37046875 35.265625 15.3984375 C34 18 34 18 32.296875 19.4140625 C25.03537424 21.26648616 17.6482324 17.10694957 11.0625 14.4375 C9.99708984 14.01275391 8.93167969 13.58800781 7.83398438 13.15039062 C5.21983575 12.1070757 2.60872048 11.05679767 0 10 C0 6.7 0 3.4 0 0 Z " fill="#E83119" transform="translate(2,28)"/>
</svg>
