<?xml version="1.0" encoding="UTF-8"?>
<svg version="1.1" xmlns="http://www.w3.org/2000/svg" width="64" height="64">
    <path d="M0 0 C2.5 1.4375 2.5 1.4375 4 4 C4.54626849 7.10121176 4.5952536 9.90353657 4 13 C2 15.3125 2 15.3125 0 17 C0 18.32 0 19.64 0 21 C1.98 21.66 3.96 22.32 6 23 C6.2475 21.9275 6.495 20.855 6.75 19.75 C8.0384526 15.88464221 8.62208038 14.22231554 12 12 C16.95936303 11.21279952 16.95936303 11.21279952 20 12 C23.0625 14.5625 23.0625 14.5625 25 18 C25.14971147 22.34163268 24.72194213 24.19555019 21.8125 27.4375 C17.13359395 30.03689225 13.04644736 29.18739938 8 28 C7.67 30.64 7.34 33.28 7 36 C7.88042969 35.86980469 8.76085937 35.73960938 9.66796875 35.60546875 C19.13978495 34.48062487 19.13978495 34.48062487 23.3125 37 C25.43252596 40.76893504 25.76086778 42.73914042 25 47 C22.72103757 49.99520777 20.995378 51.6018488 17.5 53 C14.1817247 53 12.62123356 51.98363621 10 50 C7.87491756 46.81237635 7.4979837 44.73487777 7 41 C3.97580475 41.58803797 0.98241547 42.22678118 -2 43 C-1.80528889 44.94999129 -1.80528889 44.94999129 -1 47 C0.93330603 48.09166275 0.93330603 48.09166275 3 49 C5 52 5 52 4.9375 55.375 C3.81504687 59.71515209 2.60012564 61.35990787 -1 64 C-4.97137281 64.7446324 -6.44099683 64.37266878 -9.8125 62.125 C-12.39266816 59.61855093 -12.91717964 58.74538327 -13.3125 55.1875 C-12.92909089 51.27672704 -11.7456925 49.7456925 -9 47 C-8.34 47 -7.68 47 -7 47 C-7.26088269 43.47808373 -8.24314592 42.78724732 -11 40.375 C-11.99 39.59125 -12.98 38.8075 -14 38 C-15.63260111 34.73479778 -15.68152728 31.51491384 -15 28 C-13.37439271 25.25807378 -11.52050066 22.96243361 -9 21 C-8.01 21 -7.02 21 -6 21 C-6 19.68 -6 18.36 -6 17 C-6.598125 16.773125 -7.19625 16.54625 -7.8125 16.3125 C-10.69421235 14.58347259 -11.67072428 13.07832272 -13 10 C-12.92809193 6.47650456 -12.37231132 4.5659132 -10.4375 1.625 C-6.9639831 -0.69067794 -4.05614898 -0.78961917 0 0 Z M-7 6 C-7 7.65 -7 9.3 -7 11 C-3.95086772 12.01111093 -3.95086772 12.01111093 -1 11 C-1 9.35 -1 7.7 -1 6 C-4.04913228 4.98888907 -4.04913228 4.98888907 -7 6 Z M15 17 C14.34 17.66 13.68 18.32 13 19 C13.3185177 21.10820797 13.3185177 21.10820797 14 23 C15.98 23.495 15.98 23.495 18 24 C18.66 22.35 19.32 20.7 20 19 C19.34 18.34 18.68 17.68 18 17 C17.01 17 16.02 17 15 17 Z M-7 27 C-9.30662599 28.88659875 -9.30662599 28.88659875 -9.3125 32 C-9.209375 32.99 -9.10625 33.98 -9 35 C-6.24104365 37.29637779 -6.24104365 37.29637779 -3.4375 36.75 C-0.84999433 36.16191948 -0.84999433 36.16191948 1 34 C0.67801034 30.90073181 0.67801034 30.90073181 0 28 C-3.40320934 27.32326553 -3.40320934 27.32326553 -7 27 Z M16 40 C15.01 40.66 14.02 41.32 13 42 C13.33 43.32 13.66 44.64 14 46 C15.65 46.33 17.3 46.66 19 47 C19.33 45.35 19.66 43.7 20 42 C18.68 41.34 17.36 40.68 16 40 Z M-5 52 C-5.66 52.66 -6.32 53.32 -7 54 C-6.6814823 56.10820797 -6.6814823 56.10820797 -6 58 C-4.35 57.67 -2.7 57.34 -1 57 C-1.26676204 55.01508358 -1.26676204 55.01508358 -2 53 C-2.99 52.67 -3.98 52.34 -5 52 Z " fill="#4778FB" transform="translate(38,0)"/>
    <path d="M0 0 C6.30818278 -0.35706695 6.30818278 -0.35706695 8.9375 1 C10.65886567 4.24021772 10.52960415 7.41957756 10 11 C8.9375 13 8.9375 13 7 14 C3.3125 14.1875 3.3125 14.1875 0 14 C0 13.01 0 12.02 0 11 C-1.98 11 -3.96 11 -6 11 C-6 8.69 -6 6.38 -6 4 C-2.25 2.875 -2.25 2.875 0 4 C0 2.68 0 1.36 0 0 Z " fill="#3E78D7" transform="translate(9,25)"/>
</svg>
